<?xml version="1.0" encoding="utf-8"?>
<!-- Generator: Adobe Illustrator 23.0.4, SVG Export Plug-In . SVG Version: 6.00 Build 0)  -->
<svg version="1.1" id="company-svg" xmlns="http://www.w3.org/2000/svg" xmlns:xlink="http://www.w3.org/1999/xlink" x="0px" y="0px"
	 viewBox="0 0 212.1 100" style="enable-background:new 0 0 212.1 100;" xml:space="preserve">
<style type="text/css">
	.st0{fill:#7D8892;}
</style>
<g id="Group_1126" transform="translate(0 0)">
	<g id="Group_1125">
		<path id="Path_21247" class="st0" d="M90,28.1c-0.1-3.4-0.4-6.7-0.3-10c0-5,2.2-9.7,6.2-12.8c1.1-0.9,1.3-1.6,0.5-2.7
			c-0.5-0.8-0.8-1.7-1.2-2.6c2.3,0.1,4.4,0.4,6.5,0.4c3.9,0.1,7.8,0,11.7-0.4c4.5-0.3,8.7,1.8,11.2,5.6c0.6,1.2,1.6,2.1,2.9,2.5
			c3.8,1.4,5.3,4.7,5.8,8.4c0.4,3.4,0.2,6.8-0.5,10c-0.2,0.9-0.1,1.4,0.8,1.8c1,0.3,1.6,1.3,1.5,2.3c-0.1,3.8-0.7,7.6-3,10.7
			c-1.6,2.2-2.9,4.6-3.6,7.2c-0.5,1.8-0.8,3.6-0.7,5.5c0.3,2-0.7,3.9-2.5,4.9c-4.1,2.7-8.1,5.7-12.3,8.7c1.2,1.5,2.3,2.9,3.5,4.4
			c0.7,0.9,1.8,1.7,1.8,2.6c0.1,0.9-0.9,1.8-1.5,2.7c-0.9,1.5-2.1,2.9-1.8,4.9c0.7,4.3,1.3,8.6,1.9,12.9c0.2,1.5,0.4,3,0.6,4.6
			h-12.2c0.4-2.7,0.7-5.4,1.1-8c0.5-3.3,1-6.6,1.4-9.9c0.1-0.8-0.1-1.6-0.5-2.4c-0.8-1.4-1.6-2.8-2.5-4.2c-0.3-0.4-0.3-1,0.1-1.4
			c1.6-2.1,3.2-4.2,4.8-6.4c-0.3-0.3-0.6-0.5-0.9-0.8c-4.1-3-8.3-6-12.4-9c-0.8-0.5-1.2-1.4-1.1-2.3c0.1-1.9,0-3.8-0.4-5.6
			c-0.8-2.7-2-5.3-3.5-7.7c-2.1-3.2-3.3-7-3.4-10.9C88,29.3,88.3,28.8,90,28.1z"/>
		<path id="Path_21248" class="st0" d="M92.6,61.8l7,38.2h-1.2c-11.3,0-22.7,0-34,0c-1,0-1.4-0.2-1.4-1.3c0.1-4.2,0-8.5,0.1-12.7
			c0-2.9,1.3-5.6,3.6-7.3c7.8-6.2,16.1-11.6,24.9-16.3C91.8,62.2,92.1,62,92.6,61.8z"/>
		<path id="Path_21249" class="st0" d="M160.1,99.8h-36.5c2.3-12.8,4.6-25.5,7-38.3c0.2,0.1,0.4,0.2,0.6,0.3
			c8.2,5.1,16.6,10,24.3,16c3.1,2.1,4.8,5.6,4.7,9.3C160,91.3,160.1,95.5,160.1,99.8z"/>
		<g id="_25ATCo.tif" transform="translate(0 3.877)">
			<g id="Group_1123">
				<g id="Group_1122">
					<path id="Path_21250" class="st0" d="M33.7,72.2l-7.1-10.4c-3.9,1-7.5,0-11-1.2c-2.3-0.8-8.2-2-10.4-2.9c1.3-1.5,5.8-4,6.8-5.5
						c2.4-3.3,3.8-5.7,4-9.6c0.3-3.7-0.5-7.3-0.9-10.9c-0.7-5.7-0.3-11.5,1.1-17.1c1.3-4.6,3.6-8.5,8-10.8c2.6-1.3,5.6-1.9,8.5-1.5
						c0.7,0,1.4-0.1,2-0.2c3.2-0.7,6.5-0.4,9.5,0.8c3.4,1.5,6.3,4.1,8.1,7.3c2.8,4.8,4.6,10.1,5.4,15.7c1.7,9.8,2.1,19.8,1.4,29.7
						c0,0.2,0,0.3,0,0.5c0.3,2-0.9,2.9-2.5,3.5c-2.9,1-5.8,1.5-8.9,1.7c-1.6,0.1-3.1,0.2-4.7,0.2c-0.5,0-1,0.2-1.3,0.7
						c-2.5,3.1-5,6.3-7.6,9.4C34.1,71.7,33.9,71.9,33.7,72.2z"/>
					<path id="Path_21251" class="st0" d="M56.4,95.5c0.1-2.9,0.1-5.9,0.1-8.8c0-1.3,0-2.6,0-3.9c0-3.8,1.7-7.3,4.7-9.6
						c0.3-0.2,0.6-0.5,0.9-0.7c-1-0.7-2.1-1.3-3.2-1.7c-3.3-1.5-6.7-2.8-10.1-4.1c-0.5-0.2-0.9-0.3-1.4-0.5l-4.7,7.6l-3-1.6
						l-7.3,23.4h-0.2l-5.6-22l-0.3-0.2l-1,1.4l-4.1-7.7c-4.9,2.1-9.5,4.6-13.9,7.6c-1.9,1.4-3.5,3.1-4.6,5.2c-2.7,5-2.8,10.4-2.7,16
						h56.4C56.4,95.8,56.4,95.6,56.4,95.5z"/>
				</g>
			</g>
		</g>
		<g id="Group_1124" transform="translate(99.706 3.84)">
			<path id="Path_21252" class="st0" d="M87.3,62.3c-1.1-0.6-2.3-1.3-3.4-1.9c-1.1-0.4-1.7-1.5-1.6-2.7c0.1-1.4,0.1-2.8,0-4.2
				c-0.1-2,0.4-4.1,1.3-5.9c0.9-2.1,1.9-4.2,3-6.1c1.2-2.3,2.1-4.7,2.4-7.2c0.4-2,0.7-4.3-2.1-4.9c0.3-2.4,0.7-4.6,0.9-6.9
				c0.4-3.2,0-6.6-1.3-9.6c-0.6-1.1-1.4-2.1-2.3-3c-1.3-1.2-2.9-2-4.2-3.2C76,2.7,70.3,0.9,64.7,1.9c-4.1,0.5-7.3,2.7-10.3,5.3
				c-5.3,4.5-8.1,10.1-7.1,17.3c0.2,1.6,0.4,3.2,0.7,4.9c-1.1,0.3-2.2,0.8-2.2,2.1c-0.3,3.7,0.8,7.5,2.9,10.5
				c1.2,1.6,2.1,3.4,2.8,5.4c0.5,1.2,0.9,2.5,1.1,3.8c0.2,2.3,0,4.7,0.1,7c0,0.7-0.3,1.3-0.8,1.7c5.1,5.8,11.7,9.3,18.9,9.3
				C76.9,69,82.9,66.6,87.3,62.3z"/>
			<path id="Path_21253" class="st0" d="M112.3,83.4c0.1-2.5-1-4.8-3-6.4c-3.8-2.9-7.6-5.9-11.6-8.6c-1.8-1.2-3.6-2.3-5.5-3.4
				c-5.6,5.9-13.3,9.4-21.5,9.5c-1.9,0-3.7-0.2-5.5-0.6c1.3,2.6,2.1,5.5,2.1,8.4c0.2,4,0.1,8.1,0.1,12.2c0,0.4,0,0.9,0,1.4H89
				c7.4,0,14.8,0,22.2,0c0.7,0,1.2,0,1.2-0.9C112.3,91.2,112.4,87.3,112.3,83.4z"/>
		</g>
	</g>
</g>
</svg>
